<?xml version="1.0" standalone="no"?>
<!DOCTYPE svg PUBLIC "-//W3C//DTD SVG 20010904//EN"
 "http://www.w3.org/TR/2001/REC-SVG-20010904/DTD/svg10.dtd">
<svg version="1.0" xmlns="http://www.w3.org/2000/svg"
 width="32.000000pt" height="32.000000pt" viewBox="0 0 32.000000 32.000000"
 preserveAspectRatio="xMidYMid meet">

<g transform="translate(0.000000,32.000000) scale(0.100000,-0.100000)"
fill="#000000" stroke="none">
<path d="M0 160 l0 -160 160 0 160 0 0 160 0 160 -160 0 -160 0 0 -160z m244
66 c36 -15 66 -50 66 -78 0 -22 -40 -59 -60 -56 -8 1 -21 -1 -29 -6 -7 -5 -45
-11 -82 -14 l-69 -5 0 87 0 86 70 0 c39 0 86 -6 104 -14z m-189 -25 c3 -5 2
-12 -3 -15 -5 -3 -9 1 -9 9 0 17 3 19 12 6z m-38 -53 c-3 -8 -6 -5 -6 6 -1 11
2 17 5 13 3 -3 4 -12 1 -19z m39 -7 c-1 -16 -4 -32 -7 -35 -4 -4 -4 49 0 62 4
11 8 -3 7 -27z"/>
<path d="M102 154 c1 -56 2 -60 5 -21 5 57 23 63 23 7 0 -46 14 -57 57 -43 54
18 32 77 -33 89 -50 9 -57 29 -8 21 50 -8 88 -37 94 -72 4 -25 6 -26 19 -12
19 23 7 61 -24 75 -14 7 -50 15 -80 18 l-55 7 2 -69z"/>
</g>
</svg>
